<svg width="336" height="52" viewBox="0 0 336 52" fill="none" xmlns="http://www.w3.org/2000/svg">
<path d="M0 8C0 3.58172 3.58172 0 8 0H328C332.418 0 336 3.58172 336 8V44C336 48.4183 332.418 52 328 52H8.00001C3.58173 52 0 48.4183 0 44V8Z" fill="#FCF8F6"/>
<path d="M59 34.75H57.125V33.5H59V25.7287L56.8031 24.4106L57.4469 23.3394L59.6431 24.6569C59.8278 24.7684 59.9807 24.9256 60.087 25.1133C60.1932 25.301 60.2494 25.513 60.25 25.7287V33.5C60.25 33.8315 60.1183 34.1494 59.8839 34.3839C59.6495 34.6183 59.3315 34.75 59 34.75Z" fill="#1EA575"/>
<path d="M65.25 34.75H63.375C63.0435 34.75 62.7255 34.6183 62.4911 34.3839C62.2567 34.1495 62.125 33.8315 62.125 33.5V26.625H65.875C66.2242 26.6251 66.5696 26.552 66.8888 26.4104C67.208 26.2688 67.4941 26.062 67.7285 25.8031C67.9629 25.5443 68.1405 25.2392 68.2498 24.9075C68.3591 24.5759 68.3977 24.225 68.3631 23.8775C68.2793 23.2453 67.9656 22.6662 67.4819 22.2506C66.9981 21.8351 66.3782 21.6124 65.7406 21.625H64.7512L64.6406 21.1381C64.2825 19.56 62.7694 18.5 60.875 18.5C60.1597 18.5023 59.4599 18.7085 58.8576 19.0944C58.2553 19.4803 57.7755 20.0299 57.4744 20.6788L57.2812 21.0956L56.7419 21.0244C56.6619 21.011 56.5811 21.0029 56.5 21C55.837 21 55.2011 21.2634 54.7322 21.7322C54.2634 22.2011 54 22.837 54 23.5C54 24.163 54.2634 24.7989 54.7322 25.2678C55.2011 25.7366 55.837 26 56.5 26V27.25C55.5054 27.25 54.5516 26.8549 53.8483 26.1517C53.1451 25.4484 52.75 24.4946 52.75 23.5C52.75 22.5054 53.1451 21.5516 53.8483 20.8483C54.5516 20.1451 55.5054 19.75 56.5 19.75L56.5494 19.7506C56.9892 18.9923 57.62 18.3625 58.3789 17.9238C59.1378 17.485 59.9984 17.2527 60.875 17.25C63.1744 17.25 65.0575 18.4862 65.72 20.375H65.7406C66.6886 20.3644 67.6072 20.7037 68.3206 21.328C69.034 21.9523 69.4922 22.8178 69.6075 23.7587C69.6586 24.2796 69.6001 24.8054 69.4358 25.3023C69.2715 25.7993 69.005 26.2563 68.6534 26.644C68.3018 27.0317 67.873 27.3415 67.3945 27.5536C66.916 27.7656 66.3984 27.8751 65.875 27.875H63.375V33.5H65.25V34.75Z" fill="#1EA575"/>
<path d="M83.28 30.5V21.652H79.892V20.7H87.746V21.652H84.358V30.5H83.28ZM89.1906 30.5V20.392L90.2126 20.182V24.774C90.474 24.3633 90.7866 24.06 91.1506 23.864C91.5146 23.6587 91.9253 23.556 92.3826 23.556C92.8773 23.556 93.3066 23.6633 93.6706 23.878C94.044 24.0833 94.3333 24.3773 94.5386 24.76C94.7533 25.1333 94.8606 25.572 94.8606 26.076V30.5H93.8386V26.37C93.8386 25.7633 93.6706 25.2873 93.3346 24.942C93.008 24.5873 92.5646 24.41 92.0046 24.41C91.6313 24.41 91.2906 24.4987 90.9826 24.676C90.6746 24.8533 90.418 25.1147 90.2126 25.46V30.5H89.1906ZM96.9012 30.5V23.668H97.9232V30.5H96.9012ZM97.4192 21.974C97.2139 21.974 97.0366 21.904 96.8872 21.764C96.7472 21.6147 96.6772 21.442 96.6772 21.246C96.6772 21.05 96.7472 20.882 96.8872 20.742C97.0366 20.5927 97.2139 20.518 97.4192 20.518C97.6246 20.518 97.7972 20.5927 97.9372 20.742C98.0866 20.882 98.1612 21.05 98.1612 21.246C98.1612 21.442 98.0866 21.6147 97.9372 21.764C97.7972 21.904 97.6246 21.974 97.4192 21.974ZM102.133 30.64C101.573 30.64 101.055 30.556 100.579 30.388C100.103 30.2107 99.6968 29.9587 99.3608 29.632L99.9068 28.96C100.317 29.2587 100.695 29.478 101.041 29.618C101.386 29.7487 101.741 29.814 102.105 29.814C102.599 29.814 103.01 29.6973 103.337 29.464C103.663 29.2307 103.827 28.932 103.827 28.568C103.827 28.288 103.729 28.0687 103.533 27.91C103.346 27.7513 103.033 27.63 102.595 27.546L101.475 27.35C100.812 27.2287 100.322 27.0233 100.005 26.734C99.6968 26.4447 99.5428 26.0527 99.5428 25.558C99.5428 25.166 99.6454 24.8207 99.8508 24.522C100.065 24.2233 100.359 23.99 100.733 23.822C101.106 23.6447 101.531 23.556 102.007 23.556C102.473 23.556 102.917 23.626 103.337 23.766C103.757 23.8967 104.181 24.1113 104.611 24.41L104.107 25.124C103.752 24.872 103.397 24.69 103.043 24.578C102.688 24.4567 102.329 24.396 101.965 24.396C101.517 24.396 101.157 24.494 100.887 24.69C100.616 24.886 100.481 25.152 100.481 25.488C100.481 25.768 100.565 25.9827 100.733 26.132C100.91 26.2813 101.218 26.3933 101.657 26.468L102.805 26.678C103.495 26.7993 103.999 27.0093 104.317 27.308C104.634 27.6067 104.793 28.008 104.793 28.512C104.793 28.9133 104.676 29.2773 104.443 29.604C104.209 29.9213 103.892 30.1733 103.491 30.36C103.089 30.5467 102.637 30.64 102.133 30.64ZM109.602 30.5V23.668H110.624V30.5H109.602ZM110.12 21.974C109.915 21.974 109.738 21.904 109.588 21.764C109.448 21.6147 109.378 21.442 109.378 21.246C109.378 21.05 109.448 20.882 109.588 20.742C109.738 20.5927 109.915 20.518 110.12 20.518C110.326 20.518 110.498 20.5927 110.638 20.742C110.788 20.882 110.862 21.05 110.862 21.246C110.862 21.442 110.788 21.6147 110.638 21.764C110.498 21.904 110.326 21.974 110.12 21.974ZM114.834 30.64C114.274 30.64 113.756 30.556 113.28 30.388C112.804 30.2107 112.398 29.9587 112.062 29.632L112.608 28.96C113.019 29.2587 113.397 29.478 113.742 29.618C114.087 29.7487 114.442 29.814 114.806 29.814C115.301 29.814 115.711 29.6973 116.038 29.464C116.365 29.2307 116.528 28.932 116.528 28.568C116.528 28.288 116.43 28.0687 116.234 27.91C116.047 27.7513 115.735 27.63 115.296 27.546L114.176 27.35C113.513 27.2287 113.023 27.0233 112.706 26.734C112.398 26.4447 112.244 26.0527 112.244 25.558C112.244 25.166 112.347 24.8207 112.552 24.522C112.767 24.2233 113.061 23.99 113.434 23.822C113.807 23.6447 114.232 23.556 114.708 23.556C115.175 23.556 115.618 23.626 116.038 23.766C116.458 23.8967 116.883 24.1113 117.312 24.41L116.808 25.124C116.453 24.872 116.099 24.69 115.744 24.578C115.389 24.4567 115.03 24.396 114.666 24.396C114.218 24.396 113.859 24.494 113.588 24.69C113.317 24.886 113.182 25.152 113.182 25.488C113.182 25.768 113.266 25.9827 113.434 26.132C113.611 26.2813 113.919 26.3933 114.358 26.468L115.506 26.678C116.197 26.7993 116.701 27.0093 117.018 27.308C117.335 27.6067 117.494 28.008 117.494 28.512C117.494 28.9133 117.377 29.2773 117.144 29.604C116.911 29.9213 116.593 30.1733 116.192 30.36C115.791 30.5467 115.338 30.64 114.834 30.64ZM124.432 30.626C123.946 30.626 123.517 30.5373 123.144 30.36C122.77 30.1827 122.476 29.94 122.262 29.632C122.056 29.3147 121.954 28.9507 121.954 28.54C121.954 28.1293 122.061 27.7747 122.276 27.476C122.49 27.168 122.789 26.93 123.172 26.762C123.554 26.594 124.002 26.51 124.516 26.51C124.908 26.51 125.276 26.552 125.622 26.636C125.976 26.72 126.303 26.8553 126.602 27.042V26.104C126.602 25.544 126.452 25.124 126.154 24.844C125.855 24.5547 125.416 24.41 124.838 24.41C124.52 24.41 124.194 24.4567 123.858 24.55C123.531 24.6433 123.167 24.7927 122.766 24.998L122.388 24.214C123.302 23.7753 124.161 23.556 124.964 23.556C125.813 23.556 126.466 23.766 126.924 24.186C127.381 24.5967 127.61 25.1893 127.61 25.964V30.5H126.602V29.702C126.303 30.01 125.972 30.2433 125.608 30.402C125.244 30.5513 124.852 30.626 124.432 30.626ZM122.934 28.512C122.934 28.9133 123.088 29.2353 123.396 29.478C123.713 29.7207 124.128 29.842 124.642 29.842C125.024 29.842 125.374 29.7767 125.692 29.646C126.018 29.5153 126.322 29.3193 126.602 29.058V27.742C126.312 27.574 126.014 27.4527 125.706 27.378C125.398 27.294 125.052 27.252 124.67 27.252C124.147 27.252 123.727 27.3687 123.41 27.602C123.092 27.826 122.934 28.1293 122.934 28.512Z" fill="#260F08"/>
<path d="M136.845 30.626C136.182 30.626 135.58 30.4673 135.039 30.15C134.507 29.8233 134.082 29.3847 133.765 28.834C133.457 28.2833 133.303 27.672 133.303 27C133.303 26.3187 133.457 25.7073 133.765 25.166C134.082 24.6153 134.507 24.1813 135.039 23.864C135.58 23.5373 136.182 23.374 136.845 23.374C137.386 23.374 137.899 23.4767 138.385 23.682C138.879 23.8873 139.299 24.1813 139.645 24.564L138.665 25.586C138.422 25.3153 138.151 25.11 137.853 24.97C137.554 24.83 137.237 24.76 136.901 24.76C136.518 24.76 136.173 24.8627 135.865 25.068C135.566 25.264 135.328 25.53 135.151 25.866C134.973 26.202 134.885 26.58 134.885 27C134.885 27.42 134.973 27.8027 135.151 28.148C135.328 28.484 135.566 28.75 135.865 28.946C136.173 29.142 136.518 29.24 136.901 29.24C137.237 29.24 137.554 29.17 137.853 29.03C138.151 28.89 138.422 28.6893 138.665 28.428L139.645 29.436C139.299 29.8187 138.879 30.1127 138.385 30.318C137.899 30.5233 137.386 30.626 136.845 30.626ZM143.081 30.626C142.595 30.626 142.161 30.5373 141.779 30.36C141.405 30.1733 141.111 29.9213 140.897 29.604C140.691 29.2773 140.589 28.904 140.589 28.484C140.589 28.064 140.696 27.7 140.911 27.392C141.135 27.084 141.447 26.846 141.849 26.678C142.25 26.51 142.726 26.426 143.277 26.426C143.603 26.426 143.925 26.4633 144.243 26.538C144.56 26.6033 144.868 26.7153 145.167 26.874V26.09C145.167 25.6233 145.031 25.2733 144.761 25.04C144.499 24.8067 144.098 24.69 143.557 24.69C143.267 24.69 142.955 24.7367 142.619 24.83C142.292 24.914 141.923 25.0493 141.513 25.236L140.953 24.088C141.979 23.612 142.95 23.374 143.865 23.374C144.779 23.374 145.484 23.598 145.979 24.046C146.483 24.4847 146.735 25.11 146.735 25.922V30.5H145.167V29.772C144.868 30.0613 144.546 30.276 144.201 30.416C143.855 30.556 143.482 30.626 143.081 30.626ZM142.073 28.456C142.073 28.7827 142.203 29.0393 142.465 29.226C142.726 29.4127 143.076 29.506 143.515 29.506C143.832 29.506 144.126 29.4593 144.397 29.366C144.677 29.2633 144.933 29.114 145.167 28.918V27.784C144.924 27.672 144.672 27.588 144.411 27.532C144.149 27.476 143.865 27.448 143.557 27.448C143.099 27.448 142.735 27.5367 142.465 27.714C142.203 27.8913 142.073 28.1387 142.073 28.456ZM148.65 30.5V23.486H150.232V24.998C150.437 24.466 150.703 24.06 151.03 23.78C151.357 23.5 151.735 23.36 152.164 23.36C152.304 23.3693 152.425 23.3833 152.528 23.402C152.631 23.4113 152.738 23.444 152.85 23.5V24.886C152.729 24.83 152.589 24.788 152.43 24.76C152.281 24.732 152.131 24.718 151.982 24.718C151.599 24.718 151.254 24.8207 150.946 25.026C150.647 25.2313 150.409 25.516 150.232 25.88V30.5H148.65ZM154.146 30.5V20.504L155.728 20.238V24.424C155.98 24.1067 156.293 23.864 156.666 23.696C157.039 23.5187 157.445 23.43 157.884 23.43C158.481 23.43 159.018 23.5887 159.494 23.906C159.97 24.2233 160.348 24.6527 160.628 25.194C160.917 25.7353 161.062 26.3373 161.062 27C161.062 27.6627 160.913 28.2647 160.614 28.806C160.325 29.3473 159.933 29.7767 159.438 30.094C158.943 30.4113 158.393 30.57 157.786 30.57C157.366 30.57 156.979 30.486 156.624 30.318C156.269 30.15 155.961 29.912 155.7 29.604V30.5H154.146ZM157.408 29.24C157.809 29.24 158.164 29.1467 158.472 28.96C158.789 28.764 159.037 28.498 159.214 28.162C159.401 27.8167 159.494 27.4293 159.494 27C159.494 26.5707 159.401 26.188 159.214 25.852C159.037 25.516 158.789 25.25 158.472 25.054C158.164 24.858 157.809 24.76 157.408 24.76C157.063 24.76 156.745 24.83 156.456 24.97C156.176 25.1007 155.933 25.292 155.728 25.544V28.47C155.933 28.7127 156.181 28.904 156.47 29.044C156.759 29.1747 157.072 29.24 157.408 29.24ZM165.911 30.626C165.248 30.626 164.646 30.4673 164.105 30.15C163.573 29.8327 163.153 29.4033 162.845 28.862C162.537 28.3113 162.383 27.6907 162.383 27C162.383 26.3093 162.537 25.6933 162.845 25.152C163.153 24.6013 163.573 24.1673 164.105 23.85C164.637 23.5327 165.239 23.374 165.911 23.374C166.583 23.374 167.18 23.5327 167.703 23.85C168.235 24.1673 168.655 24.6013 168.963 25.152C169.271 25.6933 169.425 26.3093 169.425 27C169.425 27.6907 169.271 28.3113 168.963 28.862C168.655 29.4033 168.235 29.8327 167.703 30.15C167.18 30.4673 166.583 30.626 165.911 30.626ZM165.911 29.282C166.293 29.282 166.629 29.184 166.919 28.988C167.217 28.792 167.451 28.5213 167.619 28.176C167.787 27.8213 167.871 27.4293 167.871 27C167.871 26.5613 167.787 26.174 167.619 25.838C167.451 25.4927 167.217 25.222 166.919 25.026C166.629 24.8207 166.293 24.718 165.911 24.718C165.528 24.718 165.187 24.8207 164.889 25.026C164.59 25.222 164.357 25.4927 164.189 25.838C164.021 26.174 163.937 26.5613 163.937 27C163.937 27.4387 164.021 27.8307 164.189 28.176C164.357 28.5213 164.59 28.792 164.889 28.988C165.187 29.184 165.528 29.282 165.911 29.282ZM171.058 30.5V23.486H172.64V24.634C172.911 24.214 173.233 23.9013 173.606 23.696C173.979 23.4813 174.399 23.374 174.866 23.374C175.342 23.374 175.762 23.4813 176.126 23.696C176.49 23.9013 176.775 24.1907 176.98 24.564C177.195 24.9373 177.302 25.376 177.302 25.88V30.5H175.706V26.328C175.706 25.8147 175.566 25.4087 175.286 25.11C175.006 24.802 174.633 24.648 174.166 24.648C173.849 24.648 173.559 24.7227 173.298 24.872C173.046 25.012 172.827 25.222 172.64 25.502V30.5H171.058ZM179.011 27.196V25.852H183.897V27.196H179.011ZM185.673 30.5V23.486H187.255V24.634C187.526 24.214 187.848 23.9013 188.221 23.696C188.595 23.4813 189.015 23.374 189.481 23.374C189.957 23.374 190.377 23.4813 190.741 23.696C191.105 23.9013 191.39 24.1907 191.595 24.564C191.81 24.9373 191.917 25.376 191.917 25.88V30.5H190.321V26.328C190.321 25.8147 190.181 25.4087 189.901 25.11C189.621 24.802 189.248 24.648 188.781 24.648C188.464 24.648 188.175 24.7227 187.913 24.872C187.661 25.012 187.442 25.222 187.255 25.502V30.5H185.673ZM197.084 30.64C196.412 30.64 195.805 30.4813 195.264 30.164C194.722 29.8373 194.293 29.4033 193.976 28.862C193.658 28.3113 193.5 27.6907 193.5 27C193.5 26.3093 193.649 25.6933 193.948 25.152C194.246 24.6107 194.652 24.1813 195.166 23.864C195.688 23.5373 196.267 23.374 196.902 23.374C197.555 23.374 198.129 23.5327 198.624 23.85C199.128 24.1673 199.52 24.5967 199.8 25.138C200.089 25.6793 200.234 26.3 200.234 27V27.378H195.054C195.11 27.7607 195.231 28.1013 195.418 28.4C195.614 28.6893 195.861 28.918 196.16 29.086C196.468 29.254 196.799 29.338 197.154 29.338C197.48 29.338 197.788 29.282 198.078 29.17C198.376 29.0487 198.624 28.8853 198.82 28.68L199.856 29.618C199.426 29.9727 198.988 30.234 198.54 30.402C198.101 30.5607 197.616 30.64 197.084 30.64ZM195.068 26.398H198.736C198.68 26.062 198.563 25.7633 198.386 25.502C198.218 25.2407 198.003 25.0353 197.742 24.886C197.49 24.7367 197.21 24.662 196.902 24.662C196.594 24.662 196.309 24.7367 196.048 24.886C195.796 25.026 195.586 25.2267 195.418 25.488C195.25 25.7493 195.133 26.0527 195.068 26.398ZM204.241 30.612C203.756 30.612 203.331 30.5047 202.967 30.29C202.603 30.0753 202.314 29.7813 202.099 29.408C201.894 29.0347 201.791 28.6007 201.791 28.106V23.486H203.387V27.644C203.387 28.1573 203.523 28.568 203.793 28.876C204.073 29.184 204.451 29.338 204.927 29.338C205.245 29.338 205.529 29.268 205.781 29.128C206.043 28.988 206.267 28.778 206.453 28.498V23.486H208.035V30.5H206.453V29.366C206.183 29.7767 205.861 30.0893 205.487 30.304C205.114 30.5093 204.699 30.612 204.241 30.612ZM213.02 30.64C212.31 30.64 211.774 30.4767 211.41 30.15C211.046 29.814 210.864 29.324 210.864 28.68V24.746H209.464V23.486H210.864V21.554L212.446 21.218V23.486H214.406V24.746H212.446V28.33C212.446 28.6753 212.52 28.9227 212.67 29.072C212.828 29.212 213.08 29.282 213.426 29.282C213.584 29.282 213.729 29.2727 213.86 29.254C214 29.226 214.172 29.1793 214.378 29.114V30.444C214.182 30.5093 213.958 30.556 213.706 30.584C213.463 30.6213 213.234 30.64 213.02 30.64ZM215.793 30.5V23.486H217.375V24.998C217.58 24.466 217.846 24.06 218.173 23.78C218.499 23.5 218.877 23.36 219.307 23.36C219.447 23.3693 219.568 23.3833 219.671 23.402C219.773 23.4113 219.881 23.444 219.993 23.5V24.886C219.871 24.83 219.731 24.788 219.573 24.76C219.423 24.732 219.274 24.718 219.125 24.718C218.742 24.718 218.397 24.8207 218.089 25.026C217.79 25.2313 217.552 25.516 217.375 25.88V30.5H215.793ZM223.198 30.626C222.713 30.626 222.279 30.5373 221.896 30.36C221.523 30.1733 221.229 29.9213 221.014 29.604C220.809 29.2773 220.706 28.904 220.706 28.484C220.706 28.064 220.813 27.7 221.028 27.392C221.252 27.084 221.565 26.846 221.966 26.678C222.367 26.51 222.843 26.426 223.394 26.426C223.721 26.426 224.043 26.4633 224.36 26.538C224.677 26.6033 224.985 26.7153 225.284 26.874V26.09C225.284 25.6233 225.149 25.2733 224.878 25.04C224.617 24.8067 224.215 24.69 223.674 24.69C223.385 24.69 223.072 24.7367 222.736 24.83C222.409 24.914 222.041 25.0493 221.63 25.236L221.07 24.088C222.097 23.612 223.067 23.374 223.982 23.374C224.897 23.374 225.601 23.598 226.096 24.046C226.6 24.4847 226.852 25.11 226.852 25.922V30.5H225.284V29.772C224.985 30.0613 224.663 30.276 224.318 30.416C223.973 30.556 223.599 30.626 223.198 30.626ZM222.19 28.456C222.19 28.7827 222.321 29.0393 222.582 29.226C222.843 29.4127 223.193 29.506 223.632 29.506C223.949 29.506 224.243 29.4593 224.514 29.366C224.794 29.2633 225.051 29.114 225.284 28.918V27.784C225.041 27.672 224.789 27.588 224.528 27.532C224.267 27.476 223.982 27.448 223.674 27.448C223.217 27.448 222.853 27.5367 222.582 27.714C222.321 27.8913 222.19 28.1387 222.19 28.456ZM228.767 30.5V20.462L230.349 20.182V30.5H228.767Z" fill="#260F08"/>
<path d="M238.66 30.598C238.072 30.598 237.54 30.444 237.064 30.136C236.588 29.8187 236.21 29.3987 235.93 28.876C235.65 28.344 235.51 27.7513 235.51 27.098C235.51 26.4353 235.65 25.8427 235.93 25.32C236.219 24.788 236.606 24.368 237.092 24.06C237.577 23.7427 238.118 23.584 238.716 23.584C239.136 23.584 239.528 23.668 239.892 23.836C240.256 23.9947 240.573 24.228 240.844 24.536V20.392L241.866 20.182V30.5H240.844V29.59C240.582 29.9167 240.265 30.1687 239.892 30.346C239.518 30.514 239.108 30.598 238.66 30.598ZM238.912 29.702C239.313 29.702 239.682 29.6227 240.018 29.464C240.354 29.3053 240.629 29.0813 240.844 28.792V25.404C240.62 25.1147 240.335 24.8907 239.99 24.732C239.654 24.564 239.294 24.48 238.912 24.48C238.454 24.48 238.044 24.592 237.68 24.816C237.325 25.04 237.04 25.348 236.826 25.74C236.62 26.132 236.518 26.58 236.518 27.084C236.518 27.5787 236.62 28.0267 236.826 28.428C237.04 28.82 237.325 29.1327 237.68 29.366C238.044 29.59 238.454 29.702 238.912 29.702ZM247.046 30.64C246.411 30.64 245.837 30.486 245.324 30.178C244.811 29.8607 244.405 29.436 244.106 28.904C243.807 28.3627 243.658 27.756 243.658 27.084C243.658 26.412 243.798 25.81 244.078 25.278C244.367 24.746 244.755 24.326 245.24 24.018C245.725 23.71 246.267 23.556 246.864 23.556C247.471 23.556 248.007 23.71 248.474 24.018C248.95 24.3167 249.323 24.7273 249.594 25.25C249.874 25.7633 250.014 26.3467 250.014 27V27.308H244.652C244.689 27.7747 244.815 28.1947 245.03 28.568C245.254 28.932 245.543 29.2213 245.898 29.436C246.262 29.6413 246.659 29.744 247.088 29.744C247.443 29.744 247.783 29.6833 248.11 29.562C248.446 29.4313 248.731 29.2587 248.964 29.044L249.608 29.73C249.216 30.038 248.81 30.2667 248.39 30.416C247.97 30.5653 247.522 30.64 247.046 30.64ZM244.68 26.58H249.006C248.959 26.1693 248.833 25.8053 248.628 25.488C248.432 25.1613 248.18 24.9047 247.872 24.718C247.573 24.5313 247.237 24.438 246.864 24.438C246.491 24.438 246.15 24.5313 245.842 24.718C245.534 24.8953 245.277 25.1473 245.072 25.474C244.876 25.7913 244.745 26.16 244.68 26.58ZM251.759 30.5V20.392L252.781 20.182V30.5H251.759ZM254.862 30.5V23.668H255.884V30.5H254.862ZM255.38 21.974C255.175 21.974 254.998 21.904 254.848 21.764C254.708 21.6147 254.638 21.442 254.638 21.246C254.638 21.05 254.708 20.882 254.848 20.742C254.998 20.5927 255.175 20.518 255.38 20.518C255.586 20.518 255.758 20.5927 255.898 20.742C256.048 20.882 256.122 21.05 256.122 21.246C256.122 21.442 256.048 21.6147 255.898 21.764C255.758 21.904 255.586 21.974 255.38 21.974ZM259.94 30.5L257.14 23.668H258.246L260.458 29.226L262.642 23.668H263.734L260.92 30.5H259.94ZM267.868 30.64C267.234 30.64 266.66 30.486 266.146 30.178C265.633 29.8607 265.227 29.436 264.928 28.904C264.63 28.3627 264.48 27.756 264.48 27.084C264.48 26.412 264.62 25.81 264.9 25.278C265.19 24.746 265.577 24.326 266.062 24.018C266.548 23.71 267.089 23.556 267.686 23.556C268.293 23.556 268.83 23.71 269.296 24.018C269.772 24.3167 270.146 24.7273 270.416 25.25C270.696 25.7633 270.836 26.3467 270.836 27V27.308H265.474C265.512 27.7747 265.638 28.1947 265.852 28.568C266.076 28.932 266.366 29.2213 266.72 29.436C267.084 29.6413 267.481 29.744 267.91 29.744C268.265 29.744 268.606 29.6833 268.932 29.562C269.268 29.4313 269.553 29.2587 269.786 29.044L270.43 29.73C270.038 30.038 269.632 30.2667 269.212 30.416C268.792 30.5653 268.344 30.64 267.868 30.64ZM265.502 26.58H269.828C269.782 26.1693 269.656 25.8053 269.45 25.488C269.254 25.1613 269.002 24.9047 268.694 24.718C268.396 24.5313 268.06 24.438 267.686 24.438C267.313 24.438 266.972 24.5313 266.664 24.718C266.356 24.8953 266.1 25.1473 265.894 25.474C265.698 25.7913 265.568 26.16 265.502 26.58ZM272.581 30.5V23.668H273.603V25.068C273.781 24.592 274.033 24.2233 274.359 23.962C274.695 23.6913 275.078 23.556 275.507 23.556C275.629 23.556 275.741 23.5653 275.843 23.584C275.946 23.5933 276.049 23.6167 276.151 23.654V24.578C276.039 24.5407 275.918 24.5127 275.787 24.494C275.666 24.466 275.549 24.452 275.437 24.452C275.017 24.452 274.649 24.5733 274.331 24.816C274.023 25.0587 273.781 25.3993 273.603 25.838V30.5H272.581ZM277.934 33.566C277.719 33.566 277.5 33.5333 277.276 33.468V32.558C277.369 32.5767 277.467 32.5907 277.57 32.6C277.673 32.6093 277.761 32.614 277.836 32.614C278.097 32.614 278.312 32.544 278.48 32.404C278.657 32.264 278.807 32.0447 278.928 31.746L279.432 30.5L276.8 23.668H277.934L280.006 29.282L282.204 23.668H283.338L279.894 32.054C279.745 32.418 279.581 32.712 279.404 32.936C279.227 33.16 279.021 33.3187 278.788 33.412C278.555 33.5147 278.27 33.566 277.934 33.566Z" fill="#260F08"/>
</svg>
